#!OML:ASF X:\für Bonn\!DataBase\2005_08_11_Bastian_Final\c3d\Bastian.ASF
:FULLY-SPECIFIED
:DEGREES
81
root -1.54926 17.2425 20.3382 -915.92 -22.5961 -178.933
lowerback 26.8922 2.76245 -4.38102
upperback 17.1379 -1.84836 -3.59964
thorax 4.31201 -2.93397 -1.20107
lowerneck -7.12385 -11.0168 -17.3777
upperneck -8.93394 -13.8306 16.628
head 0.941696 -7.02734 7.19312
rclavicle -1.51076e-014 -1.74931e-014
rhumerus -23.1653 5.89104 -91.2961
rradius 45.4691
rwrist 1.27039
rhand -11.6617 4.65319
rfingers 7.12502
rthumb 14.383 -24.8285
lclavicle -1.51076e-014 -1.74931e-014
lhumerus -10.8862 -8.99688 72.0522
lradius 33.2025
lwrist 22.9628
lhand -14.9612 -11.7476
lfingers 7.12502
lthumb 11.2022 17.9333
rfemur -5.97096 -4.02104 20.1544
rtibia 37.0271
rfoot -12.6644 -10.9897
rtoes -8.47135
lfemur 8.92624 -2.03261 -14.809
ltibia 22.2991
lfoot -11.6765 -12.8981
ltoes -25.2481
82
root -1.50728 17.2298 20.3297 -916.212 -23.1123 -178.809
lowerback 27.6387 2.81949 -4.34856
upperback 17.4409 -1.97162 -3.59669
thorax 4.33385 -3.05921 -1.19125
lowerneck -7.23524 -11.1123 -17.3534
upperneck -9.19763 -13.9548 16.7648
head 0.91288 -7.10569 7.22159
rclavicle 4.45278e-014 -7.95139e-015
rhumerus -22.6525 6.04836 -91.34
rradius 45.4142
rwrist 1.27049
rhand -11.7186 4.67809
rfingers 7.12502
rthumb 14.3282 -24.8075
lclavicle 4.45278e-014 -7.95139e-015
lhumerus -10.4087 -9.25736 71.7441
lradius 33.1627
lwrist 22.9004
lhand -14.9864 -11.4671
lfingers 7.12502
lthumb 11.1779 18.2152
rfemur -5.69478 -4.35375 20.286
rtibia 37.0839
rfoot -12.8425 -11.1991
rtoes -8.38626
lfemur 8.63642 -2.41382 -14.6801
ltibia 23.0868
lfoot -11.8905 -12.9866
ltoes -25.7756
83
root -1.46346 17.2166 20.3191 -916.509 -23.6934 -178.684
lowerback 28.3827 2.86652 -4.33553
upperback 17.7527 -2.11363 -3.56697
thorax 4.37535 -3.19831 -1.13659
lowerneck -7.35363 -11.2165 -17.3656
upperneck -9.42731 -14.0868 16.9005
head 0.898776 -7.18576 7.25252
rclavicle -2.06736e-014 -1.20861e-013
rhumerus -22.1227 6.30666 -91.3444
rradius 45.3837
rwrist 1.17564
rhand -11.8074 4.66166
rfingers 7.12502
rthumb 14.2426 -24.83
lclavicle -2.06736e-014 -1.20861e-013
lhumerus -9.94411 -9.618 71.4633
lradius 33.1247
lwrist 23.061
lhand -15.0942 -11.2064
lfingers 7.12502
lthumb 11.0739 18.4814
rfemur -5.41788 -4.7133 20.4045
rtibia 37.1385
rfoot -12.9973 -11.4273
rtoes -8.37399
lfemur 8.28778 -2.88363 -14.5785
ltibia 23.9736
lfoot -12.0722 -13.0735
ltoes -26.4807
84
root -1.41823 17.2036 20.307 -916.803 -24.3441 -178.503
lowerback 29.1043 2.86926 -4.26975
upperback 18.0701 -2.29641 -3.53752
thorax 4.43897 -3.35251 -1.10191
lowerneck -7.47659 -11.3066 -17.3535
upperneck -9.67468 -14.2013 17.0542
head 0.877846 -7.25923 7.28752
rclavicle -4.85035e-014 -4.92986e-014
rhumerus -21.5584 6.56631 -91.363
rradius 45.3485
rwrist 1.17826
rhand -11.8757 4.60215
rfingers 7.12502
rthumb 14.1768 -24.8941
lclavicle -4.85035e-014 -4.92986e-014
lhumerus -9.47867 -9.94433 71.1508
lradius 33.0639
lwrist 23.3045
lhand -15.189 -11.0083
lfingers 7.12502
lthumb 10.9825 18.6844
rfemur -5.16946 -5.09755 20.5648
rtibia 37.195
rfoot -13.1212 -11.7238
rtoes -8.43485
lfemur 7.82824 -3.35915 -14.4276
ltibia 24.9638
lfoot -12.0945 -13.1597
ltoes -27.2221
85
root -1.37178 17.19 20.2958 -917.086 -25.0049 -178.348
lowerback 29.8502 2.87979 -4.1872
upperback 18.388 -2.47151 -3.52987
thorax 4.49738 -3.50133 -1.10038
lowerneck -7.5588 -11.4022 -17.3071
upperneck -9.97019 -14.33 17.2413
head 0.840317 -7.34492 7.33007
rclavicle 5.56597e-014 -7.95139e-015
rhumerus -20.9662 6.8099 -91.3903
rradius 45.3031
rwrist 1.12392
rhand -11.9454 4.53982
rfingers 7.12502
rthumb 14.1096 -24.9611
lclavicle 5.56597e-014 -7.95139e-015
lhumerus -8.97857 -10.3468 70.7943
lradius 32.9559
lwrist 23.6079
lhand -15.3583 -10.9201
lfingers 7.12502
lthumb 10.8191 18.7812
rfemur -4.93514 -5.49875 20.6918
rtibia 37.2521
rfoot -13.2423 -12.0071
rtoes -8.30987
lfemur 7.2835 -3.90273 -14.3344
ltibia 26.0883
lfoot -11.9728 -13.1685
ltoes -27.9193
86
root -1.32598 17.1771 20.2872 -917.35 -25.6821 -178.213
lowerback 30.9491 2.90093 -4.1512
upperback 18.6729 -2.66068 -3.50152
thorax 4.20686 -3.65788 -0.989588
lowerneck -7.60099 -11.489 -17.2741
upperneck -10.27 -14.4511 17.3621
head 0.788213 -7.42643 7.35793
rclavicle 5.24792e-014 1.74931e-014
rhumerus -20.3884 7.1354 -91.3453
rradius 45.2735
rwrist 1.07348
rhand -11.9842 4.49341
rfingers 7.12502
rthumb 14.0722 -25.0101
lclavicle 5.24792e-014 1.74931e-014
lhumerus -8.45887 -10.6196 70.513
lradius 32.7484
lwrist 23.9091
lhand -15.4879 -10.8465
lfingers 7.12502
lthumb 10.6941 18.8613
rfemur -4.73679 -5.92975 20.7746
rtibia 37.3076
rfoot -13.3 -12.2728
rtoes -8.21632
lfemur 6.63784 -4.45909 -14.2852
ltibia 27.3638
lfoot -11.7777 -13.0844
ltoes -28.6705
87
root -1.28058 17.1638 20.2815 -917.635 -26.3191 -178.082
lowerback 31.7971 2.91014 -4.03016
upperback 18.9697 -2.84142 -3.50022
thorax 4.21352 -3.80695 -1.00546
lowerneck -7.65629 -11.5824 -17.2489
upperneck -10.5667 -14.5768 17.5764
head 0.750574 -7.51214 7.41378
rclavicle 8.74653e-014 9.54166e-015
rhumerus -19.7934 7.4646 -91.3069
rradius 45.2886
rwrist 1.0227
rhand -11.9805 4.4683
rfingers 7.12502
rthumb 14.0758 -25.035
lclavicle 8.74653e-014 9.54166e-015
lhumerus -7.88934 -10.69 70.2076
lradius 32.443
lwrist 24.0168
lhand -15.5636 -10.8273
lfingers 7.12502
lthumb 10.6211 18.8843
rfemur -4.52438 -6.37072 20.8403
rtibia 37.3617
rfoot -13.3388 -12.4482
rtoes -7.93021
lfemur 5.94557 -5.00144 -14.2439
ltibia 28.7776
lfoot -11.5564 -12.9611
ltoes -29.3559
88
root -1.23524 17.1516 20.279 -917.89 -26.8766 -177.974
lowerback 32.6608 2.94277 -3.91649
upperback 19.2467 -2.99501 -3.48755
thorax 4.20114 -3.943 -1.00886
lowerneck -7.66476 -11.6564 -17.228
upperneck -10.9225 -14.6827 17.7401
head 0.680246 -7.59102 7.46277
rclavicle 6.83819e-014 4.77083e-014
rhumerus -19.1741 7.88999 -91.1991
rradius 45.3209
rwrist 0.939025
rhand -11.9438 4.43077
rfingers 7.12502
rthumb 14.1111 -25.0701
lclavicle 6.83819e-014 4.77083e-014
lhumerus -7.34216 -10.7208 69.93
lradius 32.0994
lwrist 24.0464
lhand -15.616 -10.9164
lfingers 7.12502
lthumb 10.5706 18.7978
rfemur -4.37076 -6.75224 20.8972
rtibia 37.4253
rfoot -13.3313 -12.614
rtoes -7.46224
lfemur 5.15585 -5.47338 -14.2197
ltibia 30.3275
lfoot -11.2621 -12.7243
ltoes -29.7397
89
root -1.19022 17.1403 20.2801 -918.117 -27.3842 -177.907
lowerback 33.5678 2.9981 -3.78627
upperback 19.5011 -3.11924 -3.50629
thorax 4.15366 -4.05981 -1.05658
lowerneck -7.64521 -11.7416 -17.1312
upperneck -11.2773 -14.8112 17.9063
head 0.605098 -7.68504 7.5002
rclavicle -2.06736e-014 7.15625e-014
rhumerus -18.5799 8.25049 -91.0979
rradius 45.3623
rwrist 0.853433
rhand -11.919 4.45752
rfingers 7.12502
rthumb 14.135 -25.0417
lclavicle -2.06736e-014 7.15625e-014
lhumerus -6.78222 -10.7497 69.6331
lradius 31.7211
lwrist 23.9875
lhand -15.6585 -10.8877
lfingers 7.12502
lthumb 10.5296 18.8285
rfemur -4.26074 -7.13997 20.9108
rtibia 37.5135
rfoot -13.2364 -12.7049
rtoes -6.93642
lfemur 4.26531 -5.83721 -14.2172
ltibia 31.9913
lfoot -10.8474 -12.4634
ltoes -29.6173
90
root -1.1453 17.1248 20.2836 -918.377 -27.8746 -177.768
lowerback 34.5053 3.03375 -3.6182
upperback 19.7494 -3.26 -3.4832
thorax 4.09933 -4.18473 -1.07331
lowerneck -7.62003 -11.7993 -17.0901
upperneck -11.6657 -14.8988 18.087
head 0.518101 -7.75943 7.55739
rclavicle -2.8625e-014 -5.40694e-014
rhumerus -17.9555 8.7481 -90.9091
rradius 45.466
rwrist 0.741897
rhand -11.8057 4.48772
rfingers 7.12502
rthumb 14.2442 -25.0038
lclavicle -2.8625e-014 -5.40694e-014
lhumerus -6.28406 -10.7381 69.3678
lradius 31.3683
lwrist 23.9455
lhand -15.6886 -10.8736
lfingers 7.12502
lthumb 10.5006 18.8441
rfemur -4.19019 -7.5583 20.985
rtibia 37.6477
rfoot -13.1154 -12.7927
rtoes -6.29066
lfemur 3.28257 -6.05964 -14.1238
ltibia 33.7162
lfoot -10.3945 -12.2188
ltoes -29.5276
